# xmcd CD database file
#
# Track frame offsets:
#	150
#	15619
#	28275
#	44512
#	59770
#	76516
#	94510
#	109749
#	127292
#	142051
#	157741
#	171818
#	186231
#	203082
#
# Disc length: 2916 seconds
#
# Revision: 1
# Processed by: cddbd v1.5.1PL0 Copyright (c) Steve Scherf et al.
# Submitted via: CDex 1.50
#
DISCID=bf0b620e
DTITLE=Lasse Stefanz - Röd Chevrolet
DYEAR=2004
DGENRE=Dansband
TTITLE0=En Bättre Värld
TTITLE1=Wait A Minute
TTITLE2=Olivia
TTITLE3=Min Röda Chevrolet
TTITLE4=Ingen Väg Tillbaka
TTITLE5=Hon Tror Hon Vet
TTITLE6=Lyckan Inom Räckhäll
TTITLE7=Gula Höstlöv
TTITLE8=Jag Ångrar Ingenting
TTITLE9=Forever, Someday
TTITLE10=Ta Vad Du Behöver
TTITLE11=Längtan Till Havet
TTITLE12=Det Regnar Och Regnar
TTITLE13=En Tid Av Stulen Lycka
EXTD=YEAR: 2004
EXTT0=
EXTT1=
EXTT2=
EXTT3=
EXTT4=
EXTT5=
EXTT6=
EXTT7=
EXTT8=
EXTT9=
EXTT10=
EXTT11=
EXTT12=
EXTT13=
PLAYORDER=
